<?xml version="1.0" standalone="no"?>
<!DOCTYPE svg PUBLIC "-//W3C//DTD SVG 20010904//EN"
 "http://www.w3.org/TR/2001/REC-SVG-20010904/DTD/svg10.dtd">
<svg version="1.0" xmlns="http://www.w3.org/2000/svg"
 width="700.000000pt" height="700.000000pt" viewBox="0 0 700.000000 700.000000"
 preserveAspectRatio="xMidYMid meet">
<metadata>
Created by potrace 1.11, written by Peter Selinger 2001-2013
</metadata>
<g transform="translate(0.000000,700.000000) scale(0.100000,-0.100000)"
fill="#000000" stroke="none">
<path d="M3415 6927 c-220 -199 -490 -495 -650 -712 -16 -22 -31 -42 -34 -45
-27 -24 -276 -406 -308 -470 -4 -8 -22 -41 -41 -73 l-33 -57 -97 90 c-53 49
-100 90 -103 90 -25 0 -290 -257 -419 -405 -280 -323 -464 -597 -630 -940 -74
-154 -174 -399 -171 -422 0 -2 -7 -22 -15 -45 -53 -150 -102 -413 -119 -628
-1 -19 -3 -42 -4 -50 -1 -13 -37 -15 -260 -15 -143 0 -263 -4 -268 -8 -17 -17
-8 -523 12 -657 2 -14 6 -47 10 -75 27 -226 116 -580 185 -740 10 -22 21 -51
25 -65 24 -79 233 -473 265 -500 3 -3 30 -39 59 -80 227 -317 592 -614 968
-786 167 -77 465 -182 593 -209 14 -2 66 -14 115 -25 97 -21 135 -28 235 -43
19 -3 57 -9 83 -12 27 -4 57 -8 67 -10 11 -2 59 -7 107 -10 48 -4 99 -9 113
-12 41 -8 658 -11 750 -3 47 5 122 11 166 14 45 4 93 9 105 11 71 10 127 18
149 21 135 13 447 88 640 154 423 142 751 341 1041 630 160 159 253 276 372
470 49 79 177 334 177 353 0 7 4 17 9 22 11 13 97 261 118 340 21 85 61 263
67 305 3 19 7 44 10 55 2 12 7 48 11 80 4 33 9 69 11 80 22 118 26 667 6 687
-10 10 -76 13 -267 13 -140 0 -256 3 -258 5 -3 3 -8 48 -11 100 -9 125 -39
307 -76 452 -30 117 -90 306 -115 363 -8 17 -28 64 -45 105 -50 119 -179 364
-264 499 -67 106 -218 326 -235 341 -4 3 -33 39 -66 80 -32 41 -61 77 -64 80
-4 3 -37 41 -75 85 -75 87 -347 358 -383 382 -26 17 -31 14 -157 -104 l-68
-64 -77 133 c-224 390 -513 762 -847 1090 -108 106 -220 208 -227 208 -1 0
-38 -33 -82 -73z"/>
</g>
</svg>
